<?xml version="1.0" encoding="UTF-8" standalone="no"?>
<!-- Generator: Adobe Illustrator 19.2.1, SVG Export Plug-In . SVG Version: 6.00 Build 0)  -->

<svg
   version="1.1"
   id="Layer_1"
   x="0px"
   y="0px"
   viewBox="0 0 91.300034 93.5"
   xml:space="preserve"
   sodipodi:docname="AdGuard.svg"
   width="91.300034"
   height="93.5"
   inkscape:version="1.3.1 (91b66b0783, 2023-11-16)"
   xmlns:inkscape="http://www.inkscape.org/namespaces/inkscape"
   xmlns:sodipodi="http://sodipodi.sourceforge.net/DTD/sodipodi-0.dtd"
   xmlns="http://www.w3.org/2000/svg"
   xmlns:svg="http://www.w3.org/2000/svg"><defs
   id="defs1">
	
	
</defs><sodipodi:namedview
   id="namedview1"
   pagecolor="#ffffff"
   bordercolor="#000000"
   borderopacity="0.25"
   inkscape:showpageshadow="2"
   inkscape:pageopacity="0.0"
   inkscape:pagecheckerboard="0"
   inkscape:deskcolor="#d1d1d1"
   inkscape:zoom="3.2754011"
   inkscape:cx="132.96082"
   inkscape:cy="46.86449"
   inkscape:window-width="1920"
   inkscape:window-height="1009"
   inkscape:window-x="-8"
   inkscape:window-y="-8"
   inkscape:window-maximized="1"
   inkscape:current-layer="Layer_1" />
<style
   type="text/css"
   id="style1">
	.st0{fill:#68BC71;}
	.st1{fill:#67B279;}
	.st2{fill:#FFFFFF;}
</style>
<g
   id="logo"
   transform="translate(1.4992223e-5)">
		<g
   id="Group-10"
   transform="translate(12,12)">
			<g
   id="Group-9">
				<g
   id="Group-8">
					<g
   id="Group-7">
						<path
   id="Path"
   class="st0"
   d="M 33.6,-12 C 19.4,-12 2.2,-8.6 -12,-1.3 -12,14.6 -12.2,54.4 33.6,81.5 79.5,54.4 79.3,14.7 79.3,-1.3 65.1,-8.6 47.9,-12 33.6,-12 Z" />
						<path
   id="Combined-Shape"
   class="st1"
   d="M 33.6,81.5 C -12.2,54.4 -12,14.7 -12,-1.3 2.1,-8.6 19.3,-12 33.6,-12 Z" />
					</g>
					<path
   id="Fill-11"
   class="st2"
   d="M 32,50.4 59.6,13.2 c -2,-1.6 -3.8,-0.5 -4.8,0.4 v 0 L 31.8,37.5 23.1,27.1 C 18.9,22.4 13.3,26 12,27 l 20,23.4" />
				</g>
			</g>
		</g>
	</g>
</svg>
