<?xml version="1.0" encoding="UTF-8" standalone="no"?>
<!-- Created with Inkscape (http://www.inkscape.org/) -->

<svg
   version="1.1"
   id="svg2"
   xml:space="preserve"
   width="682.66669"
   height="682.66669"
   viewBox="0 0 682.66669 682.66669"
   sodipodi:docname="bazarr.ai"
   xmlns:inkscape="http://www.inkscape.org/namespaces/inkscape"
   xmlns:sodipodi="http://sodipodi.sourceforge.net/DTD/sodipodi-0.dtd"
   xmlns="http://www.w3.org/2000/svg"
   xmlns:svg="http://www.w3.org/2000/svg"><defs
     id="defs6"><clipPath
       clipPathUnits="userSpaceOnUse"
       id="clipPath16"><path
         d="M 0,512 H 512 V 0 H 0 Z"
         id="path14" /></clipPath></defs><sodipodi:namedview
     id="namedview4"
     pagecolor="#ffffff"
     bordercolor="#666666"
     borderopacity="1.0"
     inkscape:pageshadow="2"
     inkscape:pageopacity="0.0"
     inkscape:pagecheckerboard="0" /><g
     id="g8"
     inkscape:groupmode="layer"
     inkscape:label="bazarr"
     transform="matrix(1.3333333,0,0,-1.3333333,0,682.66667)"><g
       id="g10"><g
         id="g12"
         clip-path="url(#clipPath16)"><g
           id="g18"
           transform="translate(506,256)"><path
             d="m 0,0 c 0,-138.071 -111.929,-250 -250,-250 -138.071,0 -250,111.929 -250,250 0,138.071 111.929,250 250,250 C -111.929,250 0,138.071 0,0"
             style="fill:#ffffff;fill-opacity:1;fill-rule:nonzero;stroke:none"
             id="path20" /></g><g
           id="g22"
           transform="translate(506,256)"><path
             d="m 0,0 c 0,-138.071 -111.929,-250 -250,-250 -138.071,0 -250,111.929 -250,250 0,138.071 111.929,250 250,250 C -111.929,250 0,138.071 0,0 Z"
             style="fill:none;stroke:#000000;stroke-width:12;stroke-linecap:butt;stroke-linejoin:miter;stroke-miterlimit:10;stroke-dasharray:none;stroke-opacity:1"
             id="path24" /></g><g
           id="g26"
           transform="translate(406.2021,119.4688)"><path
             d="m 0,0 c -100.273,-6.375 -200.547,-6.375 -300.821,0 -25.418,1.747 -50.24,24.551 -53.31,50.048 -6.847,60.087 -6.847,120.174 0,180.261 3.07,25.496 27.892,48.3 53.31,50.048 100.274,6.375 200.548,6.375 300.821,0 25.419,-1.748 50.24,-24.552 53.311,-50.048 6.846,-60.087 6.846,-120.174 0,-180.261 C 50.24,24.551 25.418,1.748 0,0"
             style="fill:#000000;fill-opacity:1;fill-rule:nonzero;stroke:none"
             id="path28" /></g><g
           id="g30"
           transform="translate(348.3633,145.3115)"><path
             d="m 0,0 h -185.143 c -5.452,0 -9.914,4.461 -9.914,9.913 v 10e-4 c 0,5.452 4.462,9.913 9.914,9.913 L 0,19.827 c 5.452,0 9.913,-4.461 9.913,-9.913 V 9.913 C 9.913,4.461 5.452,0 0,0"
             style="fill:#ffffff;fill-opacity:1;fill-rule:nonzero;stroke:none"
             id="path32" /></g><g
           id="g34"
           transform="translate(396.5371,185.123)"><path
             d="m 0,0 h -281.491 c -5.5,0 -9.999,4.5 -9.999,9.999 0,5.5 4.499,9.999 9.999,9.999 H 0 c 5.5,0 9.999,-4.499 9.999,-9.999 C 9.999,4.5 5.5,0 0,0"
             style="fill:#ffffff;fill-opacity:1;fill-rule:nonzero;stroke:none"
             id="path36" /></g></g></g></g></svg>
