<?xml version="1.0" encoding="UTF-8" standalone="no"?>
<svg
   viewBox="0 0 48.203998 48.203999"
   version="1.1"
   id="svg4"
   sodipodi:docname="Cloudflare.svg"
   width="48.203999"
   height="48.203999"
   inkscape:version="1.3.2 (091e20e, 2023-11-25, custom)"
   xmlns:inkscape="http://www.inkscape.org/namespaces/inkscape"
   xmlns:sodipodi="http://sodipodi.sourceforge.net/DTD/sodipodi-0.dtd"
   xmlns="http://www.w3.org/2000/svg"
   xmlns:svg="http://www.w3.org/2000/svg"
   xmlns:rdf="http://www.w3.org/1999/02/22-rdf-syntax-ns#"
   xmlns:cc="http://creativecommons.org/ns#"
   xmlns:dc="http://purl.org/dc/elements/1.1/">
  <sodipodi:namedview
     id="namedview4"
     pagecolor="#ffffff"
     bordercolor="#000000"
     borderopacity="0.25"
     inkscape:showpageshadow="2"
     inkscape:pageopacity="0.0"
     inkscape:pagecheckerboard="0"
     inkscape:deskcolor="#c5c5c5"
     inkscape:zoom="12.080868"
     inkscape:cx="25.329307"
     inkscape:cy="24.542939"
     inkscape:window-width="1920"
     inkscape:window-height="1009"
     inkscape:window-x="-8"
     inkscape:window-y="-8"
     inkscape:window-maximized="1"
     inkscape:current-layer="svg4" />
  <defs
     id="defs1">
    <style
       id="style1">
      .a {
        fill: #fff;
      }

      .b {
        fill: #f48120;
      }

      .c {
        fill: #faad3f;
      }

      .d {
        fill: #404041;
      }
    </style>
  </defs>
  <title
     id="title1">Cloudflare logo</title>
  <path
     class="a"
     d="m 43.70404,23.802003 -5.6,-1.3 -1,-0.4 -25.7,0.2 v 12.4 l 32.3,0.1 z"
     id="path1"
     style="display:inline;opacity:0.899;mix-blend-mode:normal" />
  <path
     class="b"
     d="m 33.20404,33.602003 a 2.85546,2.85546 0 0 0 -0.3,-2.6 3.09428,3.09428 0 0 0 -2.1,-1.1 l -17.4,-0.2 c -0.1,0 -0.2,-0.1 -0.3,-0.1 a 0.1875,0.1875 0 0 1 0,-0.3 c 0.1,-0.2 0.2,-0.3 0.4,-0.3 l 17.5,-0.2 a 6.29223,6.29223 0 0 0 5.1,-3.8 l 1,-2.6 c 0,-0.1 0.1,-0.2 0,-0.3 a 11.39646,11.39646 0 0 0 -21.9,-1.2 5.45941,5.45941 0 0 0 -3.6,-1 5.20936,5.20936 0 0 0 -4.6000003,4.6 5.46262,5.46262 0 0 0 0.1,1.8 7.30177,7.30177 0 0 0 -7.10000001,7.3 4.102,4.102 0 0 0 0.1,1.1 0.3193,0.3193 0 0 0 0.3,0.3 H 32.50404 c 0.2,0 0.4,-0.1 0.4,-0.3 z"
     id="path2" />
  <path
     class="c"
     d="m 38.70404,22.402003 h -0.5 c -0.1,0 -0.2,0.1 -0.3,0.2 l -0.7,2.4 a 2.85546,2.85546 0 0 0 0.3,2.6 3.09428,3.09428 0 0 0 2.1,1.1 l 3.7,0.2 c 0.1,0 0.2,0.1 0.3,0.1 a 0.1875,0.1875 0 0 1 0,0.3 c -0.1,0.2 -0.2,0.3 -0.4,0.3 l -3.8,0.2 a 6.29223,6.29223 0 0 0 -5.1,3.8 l -0.2,0.9 c -0.1,0.1 0,0.3 0.2,0.3 h 13.2 a 0.26517,0.26517 0 0 0 0.3,-0.3 10.87184,10.87184 0 0 0 0.4,-2.6 9.56045,9.56045 0 0 0 -9.5,-9.5"
     id="path3" />
  <metadata
     id="metadata4">
    <rdf:RDF>
      <cc:Work
         rdf:about="">
        <dc:title>Cloudflare logo</dc:title>
      </cc:Work>
    </rdf:RDF>
  </metadata>
</svg>
