<?xml version="1.0" encoding="UTF-8" standalone="no"?>
<svg
   id="Margin_Guide"
   data-name="Margin/Guide"
   viewBox="0 0 815.28 939.78"
   version="1.1"
   sodipodi:docname="NginxProxyManager.svg"
   inkscape:version="1.3.2 (091e20e, 2023-11-25, custom)"
   xmlns:inkscape="http://www.inkscape.org/namespaces/inkscape"
   xmlns:sodipodi="http://sodipodi.sourceforge.net/DTD/sodipodi-0.dtd"
   xmlns="http://www.w3.org/2000/svg"
   xmlns:svg="http://www.w3.org/2000/svg"
   xmlns:rdf="http://www.w3.org/1999/02/22-rdf-syntax-ns#"
   xmlns:cc="http://creativecommons.org/ns#"
   xmlns:dc="http://purl.org/dc/elements/1.1/">
  <sodipodi:namedview
     id="namedview65"
     pagecolor="#323232"
     bordercolor="#000000"
     borderopacity="0.25"
     inkscape:showpageshadow="2"
     inkscape:pageopacity="0.0"
     inkscape:pagecheckerboard="0"
     inkscape:deskcolor="#d1d1d1"
     inkscape:zoom="0.86509606"
     inkscape:cx="406.89123"
     inkscape:cy="469.89001"
     inkscape:window-width="1920"
     inkscape:window-height="1009"
     inkscape:window-x="-8"
     inkscape:window-y="-8"
     inkscape:window-maximized="1"
     inkscape:current-layer="Margin_Guide" />
  <defs
     id="defs1">
    <style
       id="style1">.cls-1{fill:#faa42f;}.cls-1,.cls-10,.cls-11,.cls-12,.cls-13,.cls-14,.cls-15,.cls-16,.cls-17,.cls-18,.cls-19,.cls-2,.cls-20,.cls-21,.cls-22,.cls-23,.cls-24,.cls-25,.cls-26,.cls-27,.cls-28,.cls-29,.cls-3,.cls-30,.cls-31,.cls-32,.cls-34,.cls-35,.cls-37,.cls-38,.cls-39,.cls-4,.cls-5,.cls-6,.cls-7,.cls-8,.cls-9{fill-rule:evenodd;}.cls-2{fill:#ddb02a;}.cls-3{fill:#c47728;}.cls-4{fill:#f15933;}.cls-5{fill:#f37132;}.cls-6{fill:#d6e042;}.cls-7{fill:#fcea3b;}.cls-8{fill:#e22574;}.cls-9{fill:#ef3839;}.cls-10{fill:#bbd64b;}.cls-11{fill:#ffcf29;}.cls-12{fill:#ee438d;}.cls-13{fill:#cc3192;}.cls-14{fill:#bd2025;}.cls-15{fill:#9b3995;}.cls-16{fill:#f1eb59;}.cls-17{fill:#f7975f;}.cls-18{fill:#d31f26;}.cls-19{fill:#73206a;}.cls-20,.cls-33{fill:#853a96;}.cls-21{fill:#d98a26;}.cls-22{fill:#8f4f9f;}.cls-23{fill:#d24b9b;}.cls-24{fill:#b263a7;}.cls-25{fill:#6b297a;}.cls-26{fill:#782a8f;}.cls-27{fill:#a01664;}.cls-28{fill:#c02026;}.cls-29{fill:#9051a0;}.cls-30{fill:#b01b4a;}.cls-31{fill:#c54627;}.cls-32{fill:#a41768;}.cls-34{fill:#d1499a;}.cls-35{fill:#85459a;}.cls-36{fill:#341144;}.cls-37{fill:#ee3f8a;}.cls-38{fill:#f4805f;}.cls-39{fill:#552263;}</style>
  </defs>
  <title
     id="title1">logo</title>
  <g
     id="g75"
     style="stroke:#ffffff;stroke-opacity:1;stroke-width:5;stroke-dasharray:none">
    <path
       style="fill:#ffffff;stroke:#ffffff;stroke-width:5;stroke-dasharray:none;stroke-opacity:1"
       d="M 356.22361,836.24256 C 292.10753,827.10447 226.5306,798.59003 175.8181,757.7979 162.98706,747.47685 150.16687,735.32644 132.78419,717.01226 l -11.89097,-12.52818 -7.05225,4.1329 c -3.87875,2.2731 -7.9357,4.1329 -9.01546,4.1329 -1.07976,0 -15.149569,-7.54027 -31.266248,-16.75616 l -29.303053,-16.75616 -0.05901,-34.63527 -0.05901,-34.63528 30.380233,-17.21018 30.380238,-17.21019 30.1375,17.25527 30.1375,17.25528 -0.44077,34.58828 -0.44076,34.58829 -6.12589,3.27139 c -3.36924,1.79927 -6.12787,3.84866 -6.1303,4.55419 -0.008,2.45229 28.68338,31.05674 41.68164,41.5547 56.49144,45.62497 121.91129,71.49163 190.74253,75.41855 83.19154,4.74621 158.03013,-16.59929 220.83683,-62.98721 9.19847,-6.79381 18.56446,-14.0628 20.81335,-16.1533 l 4.08888,-3.80091 13.89334,8.05239 c 7.64133,4.42881 14.62898,8.39221 15.52809,8.80755 2.29698,1.06109 -11.9035,14.1161 -30.24283,27.80335 -45.45374,33.92359 -99.20803,57.42142 -156.0107,68.19757 -23.4359,4.44609 -92.5389,5.79726 -117.14345,2.29053 z M 123.4682,674.97232 l 17.12008,-9.98686 -0.0279,-20.66466 -0.0279,-20.66465 -17.84243,-10.27273 -17.84243,-10.27273 -18.034646,10.27273 -18.034647,10.27273 -0.05945,20.49221 -0.05945,20.49222 16.756161,10.00888 c 9.215889,5.50488 17.695862,10.07656 18.844372,10.15929 1.14852,0.0827 9.79224,-4.34366 19.20828,-9.83643 z"
       id="path72" />
    <path
       style="fill:#ffffff;stroke:#ffffff;stroke-width:5;stroke-dasharray:none;stroke-opacity:1"
       d="M 46.820883,551.28297 C 45.434119,549.03915 41.082564,523.13973 39.067546,505.13696 36.719222,484.15633 38.039424,437.4649 41.632897,414.40847 65.868715,258.90677 183.2757,137.81166 340.36377,106.29354 l 9.32739,-1.87145 0.48109,-10.885543 0.48107,-10.885544 28.60808,-16.771919 c 15.73445,-9.224555 29.10446,-16.786486 29.71113,-16.80429 0.60667,-0.0178 14.21594,7.5517 30.24283,16.821121 l 29.13978,16.853491 0.42466,35.049744 0.42464,35.04973 -27.20555,15.53011 c -14.96305,8.54155 -28.51984,16.16761 -30.12619,16.9468 -2.22047,1.07708 -10.00671,-2.6296 -32.4787,-15.46162 l -29.55805,-16.87833 v -7.0473 c 0,-8.0882 3.06061,-7.97265 -25.33858,-0.95657 -53.87522,13.30999 -107.99515,43.20981 -148.409,81.99204 -67.13898,64.42835 -104.159483,150.63679 -104.159483,242.55277 0,18.47456 3.785578,60.26831 5.74632,63.44085 0.629153,1.01799 -17.985108,13.27152 -28.928513,19.04326 -0.612206,0.32289 -1.478821,-0.005 -1.925811,-0.72792 z m 380.792357,-402.67125 17.03806,-9.95878 -0.0129,-20.69273 -0.0129,-20.692738 -17.78862,-10.26368 -17.78863,-10.26368 -17.75419,10.294445 -17.75421,10.294444 -0.45708,19.754569 c -0.38957,16.83749 -0.0532,20.08973 2.27776,22.02427 3.73292,3.09805 32.17914,19.43919 33.86187,19.4522 0.74407,0.006 9.01998,-4.47099 18.3909,-9.94832 z"
       id="path73" />
    <path
       style="fill:#ffffff;stroke:#ffffff;stroke-width:5;stroke-dasharray:none;stroke-opacity:1"
       d="M 365.36605,682.98389 C 341.98916,669.56623 295.45538,642.75536 261.95764,623.40418 l -60.90498,-35.18393 0.41932,-118.69045 0.41933,-118.69043 52.31192,-30.12084 c 122.95296,-70.79546 152.12258,-87.38425 153.66625,-87.39019 1.39247,-0.005 106.2801,60.0409 183.5004,105.05064 l 23.29515,13.57814 v 118.13621 118.13622 l -6.94767,3.93829 c -13.48412,7.64344 -172.17889,98.95023 -181.04828,104.16811 -4.94511,2.90923 -11.19802,6.58419 -13.89535,8.16661 l -4.90425,2.87709 z m 96.13224,-122.08272 51.8124,-30.06003 V 469.9143 408.98746 l -16.75616,-9.72597 c -9.21589,-5.34928 -32.85742,-19.10478 -52.53676,-30.56778 l -35.78058,-20.84182 -6.25092,3.5132 c -3.43798,1.93227 -27.06108,15.52408 -52.49576,30.20404 l -46.24486,26.69083 v 61.61152 61.61154 l 51.49454,30.07301 c 28.322,16.54016 52.27105,29.92274 53.22012,29.7391 0.94905,-0.18367 25.04114,-13.86094 53.53798,-30.39396 z"
       id="path74" />
    <path
       style="fill:#ffffff;stroke:#ffffff;stroke-width:5;stroke-dasharray:none;stroke-opacity:1"
       d="m 683.70223,696.66413 -29.86502,-17.32805 0.43957,-35.07723 0.43957,-35.07725 29.38427,-16.72098 29.38428,-16.721 5.89751,3.00869 5.89752,3.00869 4.31673,-15.01486 C 761.20324,456.80503 738.95339,346.1662 667.36996,257.31567 631.78693,213.14943 577.40617,174.1305 525.16261,155.27999 l -10.21717,-3.68656 v -17.67507 -17.67507 l 7.99013,2.37282 c 4.39457,1.30504 14.22513,4.88642 21.84569,7.95861 113.81282,45.88305 197.75308,144.82732 224.24295,264.32551 14.15958,63.87519 11.10824,129.27057 -8.9541,191.90106 -4.15113,12.95899 -4.71227,16.28223 -2.9318,17.36337 1.21102,0.73538 5.14442,3.03427 8.74086,5.10865 l 6.53899,3.77163 0.43959,35.14891 0.43956,35.1489 -24.96078,14.55302 c -13.72844,8.00414 -27.1677,15.80026 -29.86503,17.32469 l -4.90425,2.7717 z m 48.25593,-21.56668 16.75616,-9.82945 v -20.90147 -20.90147 l -16.55595,-9.57671 c -9.10577,-5.26719 -17.38168,-9.57452 -18.39091,-9.57186 -1.00923,0.003 -9.3954,4.33964 -18.63596,9.63766 l -16.801,9.63278 0.45353,21.05715 0.45353,21.05713 16.34747,9.55332 c 8.99111,5.25432 17.08311,9.58009 17.98222,9.61284 0.89912,0.0327 9.17502,-4.36373 18.39091,-9.76992 z"
       id="path75" />
  </g>
  <polygon
     class="cls-1"
     points="3.36 706.51 3.36 703.16 0 701.48 0 704.84 3.36 706.51"
     id="polygon1" />
  <polygon
     class="cls-2"
     points="0 587.92 3.36 585.68 3.36 527.5 0 525.84 0 587.92"
     id="polygon2" />
  <polygon
     class="cls-3"
     points="0 701.48 3.36 703.16 43.7 679.66 43.7 609.18 3.36 585.68 0 587.92 0 701.48"
     id="polygon3" />
  <polygon
     class="cls-4"
     points="101.42 763.56 104.78 761.34 155.21 790.98 155.21 794.35 101.42 763.56"
     id="polygon4" />
  <polygon
     class="cls-5"
     points="101.42 763.56 104.78 761.34 104.78 714.91 43.7 679.66 3.36 703.16 3.36 706.51 101.42 763.56"
     id="polygon5" />
  <polygon
     class="cls-6"
     points="0 412.28 3.36 410.6 3.36 351.86 0 350.17 0 412.28"
     id="polygon6" />
  <path
     class="cls-7"
     d="M34.87,559.27l3.35,1.66,35.3-20.13a276.66,276.66,0,0,1-2.23-37.48c0-12.88,1.12-26.31,2.23-39.16L38.22,444l-3.35,1.68Z"
     transform="translate(-34.87 -33.43)"
     id="path6" />
  <path
     class="cls-1"
     d="M38.22,619.67l40.35,22.94,61.08-34.69h0v-47L109.94,543.6c.57,8.4,2.25,16.78,3.93,25.17l-32.5,19a274.77,274.77,0,0,1-7.85-47l-35.3,20.13Z"
     transform="translate(-34.87 -33.43)"
     id="path7" />
  <path
     class="cls-4"
     d="M139.65,794.77V748.34h0l16.24-9.51-.55-.55c7.84,9.5,16.24,18.44,24.65,26.84a376.88,376.88,0,0,0,45.38,38.59l-35.3,20.7Zm60.51-81.67,40.9,23.49v34.12a268.07,268.07,0,0,1-35.3-30.77,201.84,201.84,0,0,1-18.49-19.57Z"
     transform="translate(-34.87 -33.43)"
     id="path8" />
  <polygon
     class="cls-8"
     points="307.62 882.17 307.62 878.25 256.63 849.17 253.83 850.85 307.62 882.17"
     id="polygon8" />
  <path
     class="cls-9"
     d="M288.7,884.28l2.8-1.68V841.75a354.12,354.12,0,0,1-66.13-38l-35.3,20.7v3.37Z"
     transform="translate(-34.87 -33.43)"
     id="path9" />
  <polygon
     class="cls-10"
     points="0 236.62 3.36 234.94 3.36 233.27 0 234.94 0 236.62"
     id="polygon9" />
  <polygon
     class="cls-6"
     points="0 350.17 3.36 351.86 53.79 322.77 53.79 264.04 3.36 234.94 0 236.62 0 350.17"
     id="polygon10" />
  <path
     class="cls-11"
     d="M38.22,444l35.3,20.13A382.56,382.56,0,0,1,99.31,362.35l-10.65-6.14L38.22,385.29Zm71.72,16.78L139.65,444V385.29l-9-5.05a328,328,0,0,0-20.74,80.57Z"
     transform="translate(-34.87 -33.43)"
     id="path10" />
  <path
     class="cls-1"
     d="M109.94,543.6l29.71,17.33,50.42-29.08V473.11L139.65,444l-29.71,16.78a355.24,355.24,0,0,0-2.79,42.51,319,319,0,0,0,2.79,40.28Z"
     transform="translate(-34.87 -33.43)"
     id="path11" />
  <polygon
     class="cls-4"
     points="165.29 609.18 200.59 589.03 200.59 589.03 256.63 621.48 256.63 673.5 206.2 703.16 165.29 679.66 165.29 609.18 165.29 609.18"
     id="polygon11" />
  <path
     class="cls-12"
     d="M291.5,882.6l51,29.08,51-29.08V870.85c-35.87-5-70.05-14.54-102-29.1Zm102-48.12V824.41l-51-29.64-29.71,17.34a318.78,318.78,0,0,0,80.7,22.37Z"
     transform="translate(-34.87 -33.43)"
     id="path12" />
  <polygon
     class="cls-5"
     points="165.29 609.18 200.59 589.03 200.59 524.15 155.21 498.42 104.78 527.5 104.78 574.49 165.29 609.18"
     id="polygon12" />
  <polygon
     class="cls-13"
     points="405.68 938.67 409.05 936.99 409.05 878.25 358.61 849.17 307.62 878.25 307.62 882.17 405.68 938.67"
     id="polygon13" />
  <path
     class="cls-14"
     d="M312.78,812.11l29.71-17.34V736.59l-51-29.66-50.44,29.66v34.12a315.47,315.47,0,0,0,71.72,41.4Z"
     transform="translate(-34.87 -33.43)"
     id="path13" />
  <polygon
     class="cls-15"
     points="410.71 938.11 409.05 936.99 405.68 938.67 407.92 939.78 410.71 938.11"
     id="polygon14" />
  <polygon
     class="cls-16"
     points="3.36 234.94 53.79 264.04 104.78 234.94 104.78 176.2 103.1 175.64 3.36 233.27 3.36 234.94"
     id="polygon15" />
  <path
     class="cls-7"
     d="M88.66,356.21l10.65,6.14c12.88-31.9,30.25-61,51-87.82l-10.65-6.16-51,29.1Zm42,24,9,5.05,50.42-29.08V297.47l-8.4-4.48a346.18,346.18,0,0,0-51,87.25Z"
     transform="translate(-34.87 -33.43)"
     id="path15" />
  <polygon
     class="cls-1"
     points="104.78 410.6 155.21 439.68 200.59 413.39 200.59 350.75 202.28 349.62 155.21 322.77 104.78 351.86 104.78 410.6"
     id="polygon16" />
  <polygon
     class="cls-8"
     points="307.62 761.34 358.61 790.98 409.05 761.34 409.05 707.64 407.92 708.19 353.01 676.87 307.62 703.16 307.62 761.34"
     id="polygon17" />
  <polygon
     class="cls-17"
     points="155.21 498.42 200.59 524.15 200.59 413.39 155.21 439.68 155.21 498.42"
     id="polygon18" />
  <path
     class="cls-13"
     d="M393.48,882.6l50.43,29.08,51-29.08V870.29a407,407,0,0,1-52.12,3.35,467.31,467.31,0,0,1-49.3-2.79ZM494.9,833.92v-9.51l-51-29.64-50.43,29.64v10.07a354.19,354.19,0,0,0,49.3,3.36,327.74,327.74,0,0,0,52.12-3.92Z"
     transform="translate(-34.87 -33.43)"
     id="path18" />
  <polygon
     class="cls-18"
     points="256.63 673.5 307.62 703.16 353.01 676.87 256.63 621.48 256.63 673.5"
     id="polygon19" />
  <polygon
     class="cls-19"
     points="409.05 936.99 410.71 938.11 510.45 880.49 510.45 878.25 460.04 849.17 409.05 878.25 409.05 936.99"
     id="polygon20" />
  <polygon
     class="cls-6"
     points="103.1 175.64 104.78 176.2 155.21 147.12 155.21 145.43 103.1 175.64"
     id="polygon21" />
  <path
     class="cls-11"
     d="M139.65,268.37l10.65,6.16c9.51-11.75,19.61-22.37,29.69-33a354.17,354.17,0,0,1,47.07-39.72l-37-21.25-50.42,29.08Zm42,24.62,8.4,4.48,51-29.1V235.94a265.09,265.09,0,0,0-35.3,30.76c-8.4,8.38-16.24,16.76-24.09,26.29Z"
     transform="translate(-34.87 -33.43)"
     id="path21" />
  <polygon
     class="cls-1"
     points="155.21 322.77 202.28 349.62 256.63 318.3 256.63 264.04 206.2 234.94 155.21 264.04 155.21 322.77"
     id="polygon22" />
  <polygon
     class="cls-20"
     points="563.13 850.27 561.44 849.17 510.45 878.25 510.45 880.49 563.13 850.27"
     id="polygon23" />
  <polygon
     class="cls-13"
     points="409.05 761.34 460.04 790.98 510.45 761.34 510.45 703.16 463.96 675.74 409.05 707.64 409.05 761.34"
     id="polygon24" />
  <path
     class="cls-15"
     d="M494.9,882.6l50.42,29.08,51-29.08v-42A372.07,372.07,0,0,1,494.9,870.29Zm79-71.05-28.58-16.78L494.9,824.41v9.51c27.46-4.48,54.34-11.75,79-22.37Z"
     transform="translate(-34.87 -33.43)"
     id="path24" />
  <path
     class="cls-11"
     d="M190.07,180.55l37,21.25a367.86,367.86,0,0,1,64.44-36.92V121.81l-1.13-.56-100.3,57.61Z"
     transform="translate(-34.87 -33.43)"
     id="path25" />
  <path
     class="cls-21"
     d="M241.06,268.37l50.44,29.1,51-29.1V209.63L315,194c-26.9,10.64-51.55,25.18-74,42Z"
     transform="translate(-34.87 -33.43)"
     id="path26" />
  <path
     class="cls-22"
     d="M596.31,882.6l1.68,1.11,99.74-57.61v-1.69l-37-21.25a388.1,388.1,0,0,1-64.44,37.48Z"
     transform="translate(-34.87 -33.43)"
     id="path27" />
  <polygon
     class="cls-5"
     points="354.69 261.78 307.62 234.94 256.63 264.04 256.63 318.3 354.69 261.78"
     id="polygon27" />
  <polygon
     class="cls-23"
     points="463.96 675.74 510.45 703.16 561.44 673.5 561.44 619.8 463.96 675.74"
     id="polygon28" />
  <path
     class="cls-24"
     d="M545.32,794.77l28.58,16.78a316.23,316.23,0,0,0,72.84-43.08V736.59l-50.43-29.66-51,29.66Z"
     transform="translate(-34.87 -33.43)"
     id="path28" />
  <polygon
     class="cls-11"
     points="255.5 87.82 256.63 88.38 307.62 59.27 307.62 57.61 255.5 87.82"
     id="polygon29" />
  <path
     class="cls-1"
     d="M315,194l27.46,15.67,40.89-22.94V173.83l2.25-.55A331.19,331.19,0,0,0,315,194Zm68.35-77.76L342.49,92.71l-51,29.1v43.07a387.55,387.55,0,0,1,91.88-27.4Z"
     transform="translate(-34.87 -33.43)"
     id="path29" />
  <path
     class="cls-25"
     d="M660.75,803.16l37,21.25,51-29.64V748.34L687.65,713.1l-40.91,23.49v31.88c6.74-4.48,12.33-9.51,18.51-14.55l32.48,18.47a383.38,383.38,0,0,1-37,30.77Z"
     transform="translate(-34.87 -33.43)"
     id="path30" />
  <polygon
     class="cls-26"
     points="715.54 762.45 713.86 761.34 662.87 790.98 662.87 792.66 715.54 762.45"
     id="polygon30" />
  <polygon
     class="cls-5"
     points="307.62 234.94 354.69 261.78 407.92 231.59 409.05 232.14 409.05 187.94 348.52 153.26 307.62 176.2 307.62 234.94"
     id="polygon31" />
  <polygon
     class="cls-15"
     points="561.44 673.5 611.88 703.16 652.78 679.66 652.78 609.18 614.69 587.37 614.69 589.03 561.44 619.8 561.44 673.5"
     id="polygon32" />
  <polygon
     class="cls-1"
     points="307.62 59.27 348.52 82.77 409.05 47.53 409.05 47.53 409.05 1.11 407.92 0 307.62 57.61 307.62 59.27"
     id="polygon33" />
  <polygon
     class="cls-4"
     points="409.05 232.14 409.05 187.94 409.05 187.94 470.12 153.26 470.12 153.26 510.45 176.2 510.45 234.94 462.27 262.91 409.05 232.14"
     id="polygon34" />
  <polygon
     class="cls-26"
     points="713.86 761.34 715.54 762.45 815.28 704.84 815.28 703.16 774.37 679.66 713.86 714.91 713.86 761.34"
     id="polygon35" />
  <polygon
     class="cls-27"
     points="614.69 525.84 662.87 498.42 662.87 439.68 614.69 411.71 614.69 525.84"
     id="polygon36" />
  <polygon
     class="cls-28"
     points="561.44 319.96 561.44 264.04 510.45 234.94 462.27 262.91 561.44 319.96"
     id="polygon37" />
  <polygon
     class="cls-15"
     points="614.69 587.37 652.78 609.18 652.78 609.18 713.86 574.49 713.86 527.5 662.87 498.42 614.69 525.84 614.69 587.37"
     id="polygon38" />
  <path
     class="cls-4"
     d="M505,116.2l40.33-23.49,51,29.1V166a337.81,337.81,0,0,0-47.07-17.35v37.5a187,187,0,0,1,23,8.38l-26.9,15.1L505,186.69V116.2Z"
     transform="translate(-34.87 -33.43)"
     id="path38" />
  <path
     class="cls-29"
     d="M755.46,623a17.58,17.58,0,0,0,2.24-5.61,17.58,17.58,0,0,1-2.24,5.61Zm3.35-7.85a319.17,319.17,0,0,0,16.26-69.91l-26.35,15.65v47h0l10.66,6.16Zm50.43,27.42,40.91-23.5V560.93L812,539.12a375.54,375.54,0,0,1-21.85,94l.58-1.13Z"
     transform="translate(-34.87 -33.43)"
     id="path39" />
  <polygon
     class="cls-30"
     points="614.12 350.75 662.87 322.77 662.87 264.04 611.88 234.94 561.44 264.04 561.44 319.96 614.12 350.75"
     id="polygon39" />
  <polygon
     class="cls-31"
     points="470.12 82.77 510.45 59.27 409.05 1.11 409.05 47.53 470.12 82.77"
     id="polygon40" />
  <polygon
     class="cls-32"
     points="614.69 411.71 662.87 439.68 713.86 410.6 713.86 351.86 662.87 322.77 614.12 350.75 614.69 350.75 614.69 411.71"
     id="polygon41" />
  <path
     class="cls-9"
     d="M545.32,268.37l51,29.1,50.43-29.1V238.16a309.73,309.73,0,0,0-74.52-43.63l-26.9,15.1Z"
     transform="translate(-34.87 -33.43)"
     id="path41" />
  <path
     class="cls-15"
     d="M697.73,531.85l51,29.08,26.35-15.65a341,341,0,0,0,2.79-42,387.14,387.14,0,0,0-2.79-44.2L748.72,444l-51,29.08Z"
     transform="translate(-34.87 -33.43)"
     id="path42" />
  <path
     class="cls-25"
     d="M812,539.12l38.12,21.81h0V444h0l-38.67,21.81a274.85,274.85,0,0,1,2.24,37.48c0,12.3-.56,24.05-1.69,35.8Z"
     transform="translate(-34.87 -33.43)"
     id="path43" />
  <path
     class="cls-8"
     d="M646.74,268.37l51,29.1,6.16-3.37a278.52,278.52,0,0,0-24.09-27.4,397.62,397.62,0,0,0-33.06-28.54Zm88.53,7.29,13.45-7.29V209.63l-51-29.08-38.09,22.36A368.08,368.08,0,0,1,705,241.52a442.9,442.9,0,0,1,30.25,34.14Z"
     transform="translate(-34.87 -33.43)"
     id="path44" />
  <polygon
     class="cls-26"
     points="815.28 585.68 815.28 586.24 815.28 527.5 815.28 527.5 815.28 585.68"
     id="polygon44" />
  <path
     class="cls-13"
     d="M697.73,356.21l51,29.08,6.16-3.37a318.58,318.58,0,0,0-51-87.82l-6.16,3.37Zm88.53,7.27,12.9-7.27V297.47l-50.44-29.1-13.45,7.29a380.82,380.82,0,0,1,51,87.82Z"
     transform="translate(-34.87 -33.43)"
     id="path45" />
  <path
     class="cls-9"
     d="M659.64,202.91l38.09-22.36L596.31,121.81V166a360.22,360.22,0,0,1,63.33,36.91Z"
     transform="translate(-34.87 -33.43)"
     id="path46" />
  <path
     class="cls-24"
     d="M748.72,444l26.35,15.09a347.44,347.44,0,0,0-20.19-77.2l-6.16,3.37Zm62.76,21.81L850.15,444V385.29l-51-29.08-12.9,7.27c12.9,32.45,21.85,66.56,25.22,102.36Z"
     transform="translate(-34.87 -33.43)"
     id="path47" />
  <rect
     class="cls-33"
     x="815.28"
     y="351.86"
     height="58.74"
     id="rect47" />
  <polygon
     class="cls-34"
     points="713.86 234.94 764.29 264.04 815.28 234.94 713.86 176.2 713.86 234.94"
     id="polygon47" />
  <polygon
     class="cls-15"
     points="764.29 322.77 815.28 351.86 815.28 351.86 815.28 234.94 815.28 234.94 764.29 264.04 764.29 322.77"
     id="polygon48" />
  <polygon
     class="cls-35"
     points="774.37 679.66 815.28 703.16 815.28 703.16 815.28 586.24 815.28 585.68 774.37 609.18 774.37 679.66"
     id="polygon49" />
  <rect
     class="cls-36"
     x="815.28"
     y="703.16"
     height="1.68"
     id="rect49" />
  <polygon
     class="cls-4"
     points="302.58 524.71 307.62 527.5 307.62 533.11 302.58 530.29 302.58 524.71"
     id="polygon50" />
  <polygon
     class="cls-4"
     points="302.58 413.39 307.62 410.6 358.61 439.68 358.61 498.42 307.62 527.5 302.58 524.71 302.58 413.39"
     id="polygon51" />
  <polygon
     class="cls-8"
     points="412.97 587.92 409.05 585.68 404 589.03 407.92 591.27 412.97 587.92"
     id="polygon52" />
  <polygon
     class="cls-9"
     points="404 589.03 409.05 585.68 409.05 527.5 358.61 498.42 307.62 527.5 307.62 533.11 404 589.03"
     id="polygon53" />
  <polygon
     class="cls-37"
     points="409.05 585.68 412.97 587.92 510.45 531.42 510.45 527.5 460.04 498.42 409.05 527.5 409.05 585.68"
     id="polygon54" />
  <polygon
     class="cls-9"
     points="358.61 498.42 409.05 527.5 460.04 498.42 460.04 439.68 409.05 410.6 358.61 439.68 358.61 498.42"
     id="polygon55" />
  <polygon
     class="cls-8"
     points="460.04 498.42 510.45 527.5 512.71 526.39 512.71 411.71 510.45 410.6 460.04 439.68 460.04 498.42"
     id="polygon56" />
  <polygon
     class="cls-13"
     points="512.71 526.39 510.45 527.5 510.45 531.42 512.71 530.29 512.71 526.39"
     id="polygon57" />
  <polygon
     class="cls-5"
     points="302.58 413.39 307.62 410.6 307.62 406.67 302.58 409.47 302.58 413.39"
     id="polygon58" />
  <polygon
     class="cls-4"
     points="307.62 410.6 307.62 406.67 405.68 350.17 409.05 351.86 409.05 410.6 358.61 439.68 307.62 410.6"
     id="polygon59" />
  <polygon
     class="cls-38"
     points="411.29 350.75 409.05 351.86 405.68 350.17 407.92 349.06 411.29 350.75"
     id="polygon60" />
  <polygon
     class="cls-9"
     points="409.05 410.6 460.04 439.68 510.45 410.6 510.45 408.36 411.29 350.75 409.05 351.86 409.05 410.6"
     id="polygon61" />
  <polygon
     class="cls-8"
     points="510.45 410.6 512.71 411.71 512.71 409.47 510.45 408.36 510.45 410.6"
     id="polygon62" />
  <polygon
     class="cls-5"
     points="374.3 138.16 409.05 158.31 443.77 138.16 443.77 97.89 409.05 77.76 374.3 97.89 374.3 138.16"
     id="polygon63" />
  <polygon
     class="cls-39"
     points="678.55 664.55 713.86 684.7 748.6 664.55 748.6 624.27 713.86 604.15 678.55 624.27 678.55 664.55"
     id="polygon64" />
  <polygon
     class="cls-5"
     points="70.04 664.55 104.78 684.7 139.52 664.55 139.52 624.27 104.78 604.15 70.04 624.27 70.04 664.55"
     id="polygon65" />
  <metadata
     id="metadata65">
    <rdf:RDF>
      <cc:Work
         rdf:about="">
        <dc:title>logo</dc:title>
      </cc:Work>
    </rdf:RDF>
  </metadata>
</svg>
