<?xml version="1.0" encoding="UTF-8" standalone="no"?>
<svg
   width="1024px"
   height="1024px"
   viewBox="0 0 1024 1024"
   version="1.1"
   id="svg3"
   sodipodi:docname="Radarr-Alt.svg"
   inkscape:version="1.3.2 (091e20e, 2023-11-25, custom)"
   xmlns:inkscape="http://www.inkscape.org/namespaces/inkscape"
   xmlns:sodipodi="http://sodipodi.sourceforge.net/DTD/sodipodi-0.dtd"
   xmlns:xlink="http://www.w3.org/1999/xlink"
   xmlns="http://www.w3.org/2000/svg"
   xmlns:svg="http://www.w3.org/2000/svg">
  <sodipodi:namedview
     id="namedview3"
     pagecolor="#323232"
     bordercolor="#000000"
     borderopacity="0.25"
     inkscape:showpageshadow="2"
     inkscape:pageopacity="0.0"
     inkscape:pagecheckerboard="0"
     inkscape:deskcolor="#d1d1d1"
     inkscape:zoom="0.56140411"
     inkscape:cx="499.64009"
     inkscape:cy="494.29634"
     inkscape:window-width="1920"
     inkscape:window-height="1009"
     inkscape:window-x="-8"
     inkscape:window-y="-8"
     inkscape:window-maximized="1"
     inkscape:current-layer="Simple-Logo-Light" />
  <defs
     id="defs1">
    <rect
       width="1024"
       height="1024"
       id="artboard_1" />
    <clipPath
       id="clip_1">
      <use
         xlink:href="#artboard_1"
         clip-rule="evenodd"
         id="use1" />
    </clipPath>
  </defs>
  <g
     id="Simple-Logo-Light"
     clip-path="url(#clip_1)">
    <circle
       style="fill:#eeeeee;stroke:#ffffff;stroke-width:5.01372;fill-opacity:1"
       id="path4"
       cx="512"
       cy="512"
       r="509.49313" />
    <use
       xlink:href="#artboard_1"
       stroke="none"
       fill="#FFFFFF"
       fill-opacity="0"
       id="use2" />
    <g
       id="Group-Copy"
       transform="matrix(0.81277527,0,0,0.81277527,189.34362,113.06251)"
       inkscape:label="Group-Copy">
      <path
         d="m 105.302,154.943 7.522,714.549 C 52.651,877.014 7.52158,846.927 7.52158,786.755 L 0,192.55 C 0,4.51106 172.996,-40.6184 278.298,34.5974 L 812.33,342.982 c 75.216,52.651 90.259,150.431 52.651,218.125 C 857.46,508.456 834.895,478.37 789.765,448.284 L 188.039,109.813 C 142.91,79.7268 105.302,87.2484 105.302,154.943 Z"
         id="Shape"
         fill="#24292e"
         stroke="none" />
      <path
         d="m 0,376.079 c 45.1295,15.043 90.259,7.521 127.867,-15.043 L 744.636,0 c 37.608,52.651 30.087,105.302 -15.043,135.388 L 210.604,436.251 C 135.388,473.859 37.6079,436.251 0,376.079 Z"
         transform="translate(60.17249,531.0214)"
         id="path2"
         fill="#24292e"
         stroke="none" />
      <path
         d="M 0,413.687 368.557,203.083 7.52157,0 Z"
         transform="translate(240.6902,282.8092)"
         id="path3"
         fill="#ffc230"
         stroke="none" />
    </g>
  </g>
</svg>
