<?xml version="1.0" encoding="UTF-8" standalone="no"?>
<svg
   width="1024"
   height="1024"
   viewBox="0 0 1024 1024"
   fill="none"
   version="1.1"
   id="svg9"
   sodipodi:docname="tailscale-alt.svg"
   inkscape:version="1.3.2 (091e20e, 2023-11-25, custom)"
   xmlns:inkscape="http://www.inkscape.org/namespaces/inkscape"
   xmlns:sodipodi="http://sodipodi.sourceforge.net/DTD/sodipodi-0.dtd"
   xmlns="http://www.w3.org/2000/svg"
   xmlns:svg="http://www.w3.org/2000/svg">
  <sodipodi:namedview
     id="namedview9"
     pagecolor="#262626"
     bordercolor="#000000"
     borderopacity="0.25"
     inkscape:showpageshadow="2"
     inkscape:pageopacity="0.0"
     inkscape:pagecheckerboard="0"
     inkscape:deskcolor="#d1d1d1"
     inkscape:zoom="0.48858173"
     inkscape:cx="413.44158"
     inkscape:cy="410.37146"
     inkscape:window-width="1920"
     inkscape:window-height="1009"
     inkscape:window-x="-8"
     inkscape:window-y="-8"
     inkscape:window-maximized="1"
     inkscape:current-layer="g9" />
  <g
     clip-path="url(#clip0_13627_11860)"
     id="g9"
     transform="matrix(41.851051,0,0,41.560666,-33.350056,-26.013611)">
    <path
       d="m 3.8696,15.9327 c 1.69702,0 3.07273,-1.3758 3.07273,-3.0728 0,-1.697 -1.37571,-3.0727 -3.07273,-3.0727 -1.69702,0 -3.072725,1.3757 -3.072725,3.0727 0,1.697 1.375705,3.0728 3.072725,3.0728 z"
       fill="#000000"
       id="path2"
       style="filter:url(#filter179);fill-opacity:1.0;fill:#ffffff" />
    <path
       d="m 13.0879,15.9327 c 1.697,0 3.0727,-1.3758 3.0727,-3.0728 0,-1.697 -1.3757,-3.0727 -3.0727,-3.0727 -1.6971,0 -3.0728,1.3757 -3.0728,3.0727 0,1.697 1.3757,3.0728 3.0728,3.0728 z"
       fill="#000000"
       id="path4"
       style="filter:url(#filter180);fill-opacity:1.0;fill:#ffffff" />
    <path
       d="m 13.0879,25.2646 c 1.697,0 3.0727,-1.3757 3.0727,-3.0727 0,-1.697 -1.3757,-3.0727 -3.0727,-3.0727 -1.6971,0 -3.0728,1.3757 -3.0728,3.0727 0,1.697 1.3757,3.0727 3.0728,3.0727 z"
       fill="#000000"
       id="path5"
       style="filter:url(#filter181);fill-opacity:1.0;fill:#ffffff" />
    <path
       d="m 22.1919,15.9327 c 1.697,0 3.0727,-1.3758 3.0727,-3.0728 0,-1.697 -1.3757,-3.0727 -3.0727,-3.0727 -1.6971,0 -3.0728,1.3757 -3.0728,3.0727 0,1.697 1.3757,3.0728 3.0728,3.0728 z"
       fill="#000000"
       id="path8"
       style="filter:url(#filter182);fill-opacity:1.0;fill:#ffffff" />
    <g
       id="g182"
       style="opacity:0.2">
      <path
         opacity="0.2"
         d="m 3.8696,6.77137 c 1.69702,0 3.07273,-1.3757 3.07273,-3.07272 0,-1.69702 -1.37571,-3.072731 -3.07273,-3.072731 -1.69702,0 -3.072725,1.375711 -3.072725,3.072731 0,1.69702 1.375705,3.07272 3.072725,3.07272 z"
         fill="#000000"
         id="path1"
         style="opacity:1;fill-opacity:1.0;fill:#ffffff" />
      <path
         opacity="0.2"
         d="m 3.8696,25.2646 c 1.69702,0 3.07273,-1.3757 3.07273,-3.0727 0,-1.697 -1.37571,-3.0727 -3.07273,-3.0727 -1.69702,0 -3.072725,1.3757 -3.072725,3.0727 0,1.697 1.375705,3.0727 3.072725,3.0727 z"
         fill="#000000"
         id="path3"
         style="opacity:1;fill-opacity:1.0;fill:#ffffff" />
      <path
         opacity="0.2"
         d="m 13.0879,6.77137 c 1.697,0 3.0727,-1.3757 3.0727,-3.07272 0,-1.69702 -1.3757,-3.072731 -3.0727,-3.072731 -1.6971,0 -3.0728,1.375711 -3.0728,3.072731 0,1.69702 1.3757,3.07272 3.0728,3.07272 z"
         fill="#000000"
         id="path6"
         style="opacity:1;fill-opacity:1.0;fill:#ffffff" />
      <path
         opacity="0.2"
         d="m 22.1919,6.77137 c 1.697,0 3.0727,-1.3757 3.0727,-3.07272 0,-1.69702 -1.3757,-3.072731 -3.0727,-3.072731 -1.6971,0 -3.0728,1.375711 -3.0728,3.072731 0,1.69702 1.3757,3.07272 3.0728,3.07272 z"
         fill="#000000"
         id="path7"
         style="opacity:1;fill-opacity:1.0;fill:#ffffff" />
      <path
         opacity="0.2"
         d="m 22.1919,25.2646 c 1.697,0 3.0727,-1.3757 3.0727,-3.0727 0,-1.697 -1.3757,-3.0727 -3.0727,-3.0727 -1.6971,0 -3.0728,1.3757 -3.0728,3.0727 0,1.697 1.3757,3.0727 3.0728,3.0727 z"
         fill="#000000"
         id="path9"
         style="opacity:1;fill-opacity:1.0;fill:#ffffff" />
    </g>
  </g>
  <defs
     id="defs9">
    <clipPath
       id="clip0_13627_11860">
      <rect
         width="26"
         height="26"
         fill="#ffffff"
         id="rect9"
         x="0"
         y="0" />
    </clipPath>
    <filter
       style="color-interpolation-filters:sRGB;"
       inkscape:label="Fade to Black or White"
       id="filter179"
       x="0"
       y="0"
       width="1"
       height="1">
      <feColorMatrix
         values="0.75 0 0 0 0.25 0 0.75 0 0 0.25 0 0 0.75 0 0.25 0 0 0 1 0"
         id="feColorMatrix179" />
    </filter>
    <filter
       style="color-interpolation-filters:sRGB;"
       inkscape:label="Fade to Black or White"
       id="filter180"
       x="0"
       y="0"
       width="1"
       height="1">
      <feColorMatrix
         values="0.75 0 0 0 0.25 0 0.75 0 0 0.25 0 0 0.75 0 0.25 0 0 0 1 0"
         id="feColorMatrix180" />
    </filter>
    <filter
       style="color-interpolation-filters:sRGB;"
       inkscape:label="Fade to Black or White"
       id="filter181"
       x="0"
       y="0"
       width="1"
       height="1">
      <feColorMatrix
         values="0.75 0 0 0 0.25 0 0.75 0 0 0.25 0 0 0.75 0 0.25 0 0 0 1 0"
         id="feColorMatrix181" />
    </filter>
    <filter
       style="color-interpolation-filters:sRGB;"
       inkscape:label="Fade to Black or White"
       id="filter182"
       x="0"
       y="0"
       width="1"
       height="1">
      <feColorMatrix
         values="0.75 0 0 0 0.25 0 0.75 0 0 0.25 0 0 0.75 0 0.25 0 0 0 1 0"
         id="feColorMatrix182" />
    </filter>
  </defs>
</svg>
